<svg enable-background="new 0 0 76.00 76.00" height="76" viewBox="0 0 76 76" width="76" xmlns="http://www.w3.org/2000/svg"><path d="m45.4403 40.9455 12.2561 4.9194-3 5.1962-10.3816-8.149c-.4805.6169-1.0494 1.1615-1.6878 1.6148l3.9778 5.9034-2.1651 1.25-3.1241-6.3976c-.6817.3109-1.4146.5288-2.1826.6377l1.8774 13.1421h-6l1.877-13.1392c-.7925-.1103-1.548-.3367-2.2485-.6615l-3.1277 6.405-2.1651-1.25 3.9876-5.9179c-.6169-.4438-1.1681-.9732-1.6361-1.5709l-10.4593 8.21-3-5.1961 12.3389-4.9527c-.2825-.7007-.4686-1.4505-.5419-2.2332l-7.0279.4881v-2.5l7.029.4881c.0744-.782.2615-1.5312.5447-2.2312l-12.2522-4.9179 3-5.1961 10.3911 8.1565c.4677-.5918 1.0173-1.1159 1.6316-1.5552l-3.946-5.8561 2.1651-1.25 3.0973 6.3426c.6867-.315 1.4258-.5357 2.2005-.6454l-1.8685-13.0794h6l-1.8685 13.0794c.7657.1084 1.4964.3252 2.1763.6343l3.1099-6.3683 2.165 1.25-3.9589 5.8754c.6248.4433 1.1832.9739 1.6574 1.5742l10.4093-8.1708 3 5.1961-12.2734 4.9264c.1315.3244.2423.6594.3309 1.0033h27.1958l.0562 2-.0562 2h-27.1958c-.0833.3235-.1863.6392-.3077.9455z" stroke-linejoin="round" stroke-width=".2"/></svg>