<svg width="227" height="183" viewBox="0 0 227 183" fill="none" xmlns="http://www.w3.org/2000/svg">
<path fill-rule="evenodd" clip-rule="evenodd" d="M159.945 144H0.05521C0.0185108 143.005 0 142.004 0 141C0 96.8172 35.8172 61 80 61C124.183 61 160 96.8172 160 141C160 142.004 159.981 143.005 159.945 144Z" />
<rect x="192.693" y="17.2597" width="6" height="14" transform="rotate(-39.9293 192.693 17.2597)" stroke-width="2"/>
<rect x="1" y="148" width="158" height="34" stroke-width="2"/>
<rect x="122.407" y="74.872" width="86" height="14" transform="rotate(-39.2949 122.407 74.872)" stroke-width="2"/>
<rect x="204.693" y="33.2597" width="6" height="14" transform="rotate(-39.9293 204.693 33.2597)" stroke-width="2"/>
<rect x="134.407" y="90.872" width="86" height="14" transform="rotate(-39.2949 134.407 90.872)" stroke-width="2"/>
</svg>
