<svg width="227" height="183" viewBox="0 0 227 183" fill="none" xmlns="http://www.w3.org/2000/svg">
<path fill-rule="evenodd" clip-rule="evenodd" d="M159.945 144H0.05521C0.0185108 143.005 0 142.004 0 141C0 96.8172 35.8172 61 80 61C124.183 61 160 96.8172 160 141C160 142.004 159.981 143.005 159.945 144Z" />
<rect x="1" y="148" width="158" height="34" stroke-width="2"/>
<rect x="194.973" y="27.0174" width="6" height="14" transform="rotate(-43.8587 194.973 27.0174)" stroke-width="2"/>
<rect x="128.8" y="89.3109" width="86" height="14" transform="rotate(-43.2243 128.8 89.3109)" stroke-width="2"/>
<rect x="181.753" y="12.8043" width="6" height="14" transform="rotate(-43.8587 181.753 12.8043)" stroke-width="2"/>
<rect x="115.58" y="75.0977" width="86" height="14" transform="rotate(-43.2243 115.58 75.0977)" stroke-width="2"/>
<rect x="208.566" y="41.1257" width="6" height="14" transform="rotate(-43.8587 208.566 41.1257)" stroke-width="2"/>
<rect x="142.393" y="103.419" width="86" height="14" transform="rotate(-43.2243 142.393 103.419)" stroke-width="2"/>
</svg>
